<svg width="1440" height="1024" viewBox="0 0 1440 1024" fill="none" xmlns="http://www.w3.org/2000/svg">
<g clip-path="url(#clip0)">
<circle cx="1097" cy="70" r="236.5" stroke="#7657ED" stroke-width="15"/>
<path d="M-54.7694 889.72L-236.602 705.709C-241.665 700.535 -241.086 692.109 -235.285 687.766L490.362 145.132C500.806 137.298 513.955 150.477 506.214 160.867L-30.9497 888.054C-36.7296 895.784 -47.9624 896.622 -54.7694 889.72ZM-217.395 707.112L-56.1466 870.322C-49.3338 877.14 -38.1068 876.387 -32.3269 868.656L444.918 222.525C452.664 212.051 439.51 198.956 429.066 206.79L-215.994 689.175C-221.88 693.512 -222.458 701.939 -217.395 707.112Z" fill="#FFA0B7"/>
<circle cx="925.5" cy="987.5" r="246" stroke="#FFD41E" stroke-width="15"/>
</g>
<defs>
<clipPath id="clip0">
<rect width="1440" height="1024" fill="white"/>
</clipPath>
</defs>
</svg>
