<?xml version="1.0" ?><!DOCTYPE svg  PUBLIC '-//W3C//DTD SVG 1.1//EN'  'http://www.w3.org/Graphics/SVG/1.1/DTD/svg11.dtd'><svg height="512px" style="enable-background:new 0 0 512 512;" version="1.1" viewBox="0 0 512 512" width="512px" xml:space="preserve" xmlns="http://www.w3.org/2000/svg" xmlns:xlink="http://www.w3.org/1999/xlink"><g id="comp_x5F_92-discourse"><g><path d="    M257.865,36.001c-120.409,0-221.863,96.74-221.863,216.17c0,3.829,0.098,223.828,0.098,223.828l221.766-0.197    c120.509,0,218.133-100.47,218.133-219.898S378.374,36.001,257.865,36.001z M256.001,381.715c-19.054,0-37.224-4.226-53.43-11.884    l-79.65,19.741l22.489-73.662c-9.624-17.776-15.123-38.205-15.123-59.91c0-69.437,56.276-125.713,125.714-125.713    S381.714,186.563,381.714,256C381.714,325.439,325.438,381.715,256.001,381.715z" style="fill:#F05A55;stroke:#none;stroke-width:20;stroke-linecap:round;stroke-linejoin:round;stroke-miterlimit:10;"/></g></g><g id="Layer_1"/></svg>
