<?xml version="1.0" encoding="utf-8"?>
<!-- Generator: Adobe Illustrator 24.1.0, SVG Export Plug-In . SVG Version: 6.00 Build 0)  -->
<svg version="1.1" id="Layer_1" xmlns="http://www.w3.org/2000/svg" xmlns:xlink="http://www.w3.org/1999/xlink" x="0px" y="0px"
	 viewBox="0 0 512 512" style="enable-background:new 0 0 512 512;" xml:space="preserve">
<style type="text/css">
	.st0{fill:#FFFFFF;}
</style>
<g id="comp_x5F_92-discourse">
	<g>
		<path class="st0" d="M257.9,36C137.5,36,36,132.7,36,252.2C36,256,36.1,476,36.1,476l221.8-0.2c120.5,0,218.1-100.5,218.1-219.9
			S378.4,36,257.9,36z M256,381.7c-19.1,0-37.2-4.2-53.4-11.9l-79.7,19.7l22.5-73.7c-9.6-17.8-15.1-38.2-15.1-59.9
			c0-69.4,56.3-125.7,125.7-125.7S381.7,186.6,381.7,256C381.7,325.4,325.4,381.7,256,381.7z"/>
	</g>
</g>
<g id="Layer_1_1_">
</g>
</svg>
