<svg width="896" height="965" viewBox="0 0 896 965" fill="none" xmlns="http://www.w3.org/2000/svg">
<circle cx="482" cy="445" r="379" stroke="#7657ED" stroke-width="15"/>
<path d="M271.338 951.425L33.8135 758.057C27.1933 752.615 26.7983 742.622 33.072 736.77L817.892 5.39555C829.184 -5.15876 846.344 8.67415 838.56 21.892L299.162 946.422C293.346 956.259 280.231 958.679 271.338 951.425ZM56.5997 757.256L267.24 928.769C276.129 935.924 289.248 933.604 295.064 923.766L774.286 102.294C782.066 88.9761 764.91 75.2431 753.618 85.7974L55.9581 735.965C49.5844 741.822 49.9795 751.814 56.5997 757.256Z" fill="#FF7C4E"/>
<path d="M482 824C272.684 824 103 654.316 103 445" stroke="#7657ED" stroke-width="15"/>
</svg>
