<?xml version="1.0" encoding="utf-8"?>
<!-- Generator: Adobe Illustrator 24.1.0, SVG Export Plug-In . SVG Version: 6.00 Build 0)  -->
<svg version="1.1" id="Слой_1" xmlns="http://www.w3.org/2000/svg" xmlns:xlink="http://www.w3.org/1999/xlink" x="0px" y="0px"
	 viewBox="0 0 947 774" style="enable-background:new 0 0 947 774;" xml:space="preserve">
<style type="text/css">
	.st0{fill:#12121F;}
</style>
<path class="st0" d="M196.4,463.6c21.2,5.1-83.3,3.3-83.3,3.3s41.2,124.6,179,131.2c0,0-85.4,90.7-284.4,82.5
	c0,0,168.9,121.3,416.4,72.6c0,0,223.6-38,344-254.1c0,0,77.6-117.1,77.6-282.1c0,0-1.6-19.8,19-37.9c0,0,59-53.6,77.7-81.7
	c0,0-82.7,26.4-105.8,27.2c0,0,72.6-59.4,77.5-104.8c0,0-56.1,30.9-110.5,44.1c0,0-9.1,3.8-20.6-8.6c0,0-53.6-61-157.6-46.2
	c0,0-135.3,21.4-158.4,161.7c0,0-8.3,44.6,2.5,71c0,0-228.5-0.8-396.8-201.3c0,0-81.7,151.8,56.1,254.1c0,0-25.6,8.2-83.3-20.6
	C45.4,273.8,46.2,427.3,196.4,463.6z"/>
</svg>
